<svg xmlns="http://www.w3.org/2000/svg" viewBox="0 0 960 540" class="a">
<style>.a{fill:none;}.b{fill:#fff;}.c{fill:#007acc;}</style>
<clipPath>
<path d="m0 0l960 0 0 540 -960 0 0-540z"/>
</clipPath>
<g clip-path="url(#g35f391192_00.0)">
<path d="m0 0l960 0 0 540 -960 0z" class="b"/>
<path d="m38 270l0 0c0-182.3 147.7-330 330-330l0 0c87.5 0 171.5 34.8 233.3 96.7 61.9 61.9 96.7 145.8 96.7 233.3l0 0c0 182.3-147.7 330-330 330l0 0c-182.3 0-330-147.7-330-330z" class="c"/>
<path d="m108.3 209.1l519.4 0 0 121.8 -519.4 0z" class="a"/>
<path d="m144.4 203.9q-7 0-12.7-3.6 -5.6-3.6-8.8-10.2 -3.2-6.6-3.2-15.4 0-8.8 3.2-15.4 3.2-6.6 8.9-10.2 5.7-3.6 12.8-3.6 6.9 0 12.6 2.6l-1.1 9.8q-3-1.3-5.2-1.9 -2.2-0.6-5-0.6 -7.3 0-11.4 5.1 -4.1 5.1-4.1 14.2 0 9 4.1 14.2 4.1 5.1 11.3 5.1 2.8 0 5-0.6 2.3-0.6 5.2-1.9l1.1 9.8q-5.3 2.6-12.7 2.6zm33.7-0.3q-5.4 0-9.4-2.8 -4-2.8-6.1-7.5 -2.1-4.7-2.1-10.4 0-5.7 2.1-10.4 2.1-4.7 6.1-7.5 4-2.8 9.4-2.8 5.5 0 9.5 2.8 4 2.8 6.2 7.5 2.1 4.7 2.1 10.4 0 5.7-2.1 10.4 -2.1 4.7-6.2 7.5 -4 2.8-9.5 2.8zm0-7.8q3.8 0 5.9-3.5 2.1-3.5 2.1-9.4 0-5.8-2.1-9.4 -2.1-3.5-5.9-3.5 -3.7 0-5.8 3.6 -2.1 3.5-2.1 9.3 0 5.8 2.1 9.3 2.1 3.5 5.8 3.5zm55.1-53l0 60 -9 0 -0.2-2.6q-1.9 1.7-4.1 2.5 -2.2 0.8-5.1 0.8 -5 0-8.6-2.8 -3.6-2.8-5.4-7.5 -1.8-4.7-1.8-10.4 0-5.7 1.8-10.4 1.8-4.7 5.4-7.5 3.6-2.8 8.6-2.8 5.2 0 8.8 3.1l0-22.5 9.6 0zm-17 53q3.9 0 5.9-3.5 2-3.5 2-9.4 0-5.9-2-9.4 -2-3.5-5.9-3.5 -3.5 0-5.5 3.5 -2 3.5-2 9.4 0 5.8 2 9.4 2 3.5 5.5 3.5zm41.5 7.8q-6.1 0-10.3-2.8 -4.2-2.8-6.4-7.5 -2.1-4.7-2.1-10.5 0-5.9 2-10.6 2-4.7 5.9-7.4 3.9-2.7 9.4-2.7 6.8 0 10.7 4.8 3.9 4.8 3.9 12.9 0 2.3-0.5 5.1l-21.5 0q0.5 5.4 3.2 8.1 2.7 2.7 6.7 2.7 5.5 0 10.3-3.2l0.2 8.4q-4.9 2.6-11.6 2.6zm3.4-25.4q0-8.2-5.6-8.2 -5.5 0-6.6 8.2l12.2 0z" class="b"/>
<path d="m144.6 299.9q-7.4 0-13.1-3.6 -5.6-3.6-8.8-10.2 -3.1-6.6-3.1-15.3 0-8.8 3.3-15.4 3.3-6.6 9-10.2 5.8-3.6 13-3.6 7.1 0 13.1 2.6l-1.1 9.8q-3.1-1.3-5.5-1.9 -2.4-0.6-5.2-0.6 -7.5 0-11.7 5.1 -4.2 5.1-4.2 14.2 0 9.2 3.9 14.3 3.9 5 11.2 5 2.5 0 4.5-0.7l0-9.7 -6.4 0 0-9 16.2 0 0 25.1q-2.7 1.9-6.6 3 -3.9 1.1-8.5 1.1zm38.9-0.3q-6.1 0-10.3-2.8 -4.2-2.8-6.4-7.5 -2.1-4.7-2.1-10.5 0-5.9 2-10.6 2-4.7 5.9-7.4 3.9-2.7 9.4-2.7 6.8 0 10.7 4.8 3.9 4.8 3.9 12.9 0 2.3-0.5 5.1l-21.5 0q0.5 5.4 3.2 8.1 2.7 2.7 6.7 2.7 5.5 0 10.3-3.2l0.2 8.4q-4.9 2.6-11.6 2.6zm3.4-25.4q0-8.2-5.6-8.2 -5.5 0-6.6 8.2l12.2 0zm34.2-16.1q6 0 9.2 4 3.2 4 3.2 10.7l0 26 -9.6 0 0-24.7q0-8.1-5.4-8.1 -3.8 0-6.2 3.4l0 29.4 -9.6 0 0-40 8.3 0 0.4 3.1q3.9-3.8 9.8-3.8zm36.6 41.4q-6.1 0-10.3-2.8 -4.2-2.8-6.4-7.5 -2.1-4.7-2.1-10.5 0-5.9 2-10.6 2-4.7 5.9-7.4 3.9-2.7 9.4-2.7 6.8 0 10.7 4.8 3.9 4.8 3.9 12.9 0 2.3-0.5 5.1l-21.5 0q0.5 5.4 3.2 8.1 2.7 2.7 6.7 2.7 5.5 0 10.3-3.2l0.2 8.4q-4.9 2.6-11.6 2.6zm3.4-25.4q0-8.2-5.6-8.2 -5.5 0-6.6 8.2l12.2 0zm15.3-15.4l8.4 0 0.6 4.2q2.2-2.5 4.2-3.7 2-1.2 4.6-1.2 1.1 0 2.1 0.2l-0.7 9.7q-1.2-0.4-2.6-0.4 -1.9 0-3.4 0.9 -1.5 0.9-3.6 3l0 27.3 -9.6 0 0-40zm30.6 40.8q-4.5 0-7.6-2.9 -3.1-2.9-3.1-8.2 0-5.5 3.3-8.8 3.3-3.3 7.7-4.8 4.4-1.4 8-1.6 0-3.5-1.3-5 -1.3-1.5-4.4-1.5 -2.4 0-4.6 0.8 -2.2 0.8-5 2.3l-0.6-8.1q6.4-3.5 12.9-3.5 6 0 9.4 3.6 3.4 3.6 3.4 11.2l0 12.1q0 3 0.2 4.3 0.3 1.4 0.8 1.7 0.5 0.4 1.6 0.4l1.3 0 -0.6 8.2 -4.2 0q-2.2 0-4.3-1.3 -2-1.3-3-3.4 -2.2 2.3-4.4 3.5 -2.2 1.2-5.4 1.2zm3.3-7.6q2.7 0 5.1-2.9l0-9.1q-3.8 0.5-6.4 2.3 -2.5 1.8-2.5 5.2 0 2.3 1 3.4 1 1.1 2.8 1.1zm33.7 7.6q-4.6 0-7-2.6 -2.4-2.6-2.4-7.8l0-22.2 -4.5 0 0.9-8.2 3.6 0 0-8.8 9.6-1 0 9.8 7 0 0 8.2 -7 0 0 19.7q0 2.5 1 3.6 1 1.2 3.2 1.2l2.9 0 -0.9 8.2 -6.3 0zm12.2-56.8l9.6 0 0 9.9 -9.6 0 0-9.9zm0 16l9.6 0 0 40 -9.6 0 0-40zm32.7 40.8q-5.4 0-9.4-2.8 -4-2.8-6.1-7.5 -2.1-4.7-2.1-10.4 0-5.7 2.1-10.4 2.1-4.7 6.1-7.5 4-2.8 9.4-2.8 5.5 0 9.5 2.8 4 2.8 6.2 7.5 2.1 4.7 2.1 10.4 0 5.7-2.1 10.4 -2.1 4.7-6.2 7.5 -4 2.8-9.5 2.8zm0-7.8q3.8 0 5.9-3.5 2.1-3.5 2.1-9.4 0-5.8-2.1-9.4 -2.1-3.5-5.9-3.5 -3.7 0-5.8 3.6 -2.1 3.5-2.1 9.3 0 5.8 2.1 9.3 2.1 3.5 5.8 3.5zm42.2-33.6q6 0 9.2 4 3.2 4 3.2 10.7l0 26 -9.6 0 0-24.7q0-8.1-5.4-8.1 -3.8 0-6.2 3.4l0 29.4 -9.6 0 0-40 8.3 0 0.4 3.1q3.9-3.8 9.8-3.8zm31.6 0.6l9.7 0 5.8 27.2 5.5-26.4 8 0 5.8 26.4 5.5-27.2 9.7 0 -11.1 40 -8.2 0 -5.6-25.8 -5.6 25.8 -8.2 0 -11.2-40zm53.7-16l9.6 0 0 9.9 -9.6 0 0-9.9zm0 16l9.6 0 0 40 -9.6 0 0-40zm28.3 40.8q-4.6 0-7-2.6 -2.4-2.6-2.4-7.8l0-22.2 -4.5 0 0.9-8.2 3.6 0 0-8.8 9.6-1 0 9.8 7 0 0 8.2 -7 0 0 19.7q0 2.5 1 3.6 1 1.2 3.2 1.2l2.9 0 -0.9 8.2 -6.3 0zm30.7-41.4q6 0 9.2 4 3.2 4 3.2 10.7l0 26 -9.6 0 0-24.7q0-8.1-5.4-8.1 -3.8 0-6.2 3.4l0 29.4 -9.6 0 0-60 9.6 0 0 22.3q3.6-3 8.9-3z" class="b"/>
<path d="m131.4 347.8l-13.4 0 0-9 36.6 0 0 9 -13.4 0 0 47 -9.8 0 0-47zm32.5 45.2l-13.7-38.2 10 0 8.5 27.2 8.5-27.2 10 0 -21.8 59.4 -9.8 0 8.3-21.2zm46.4-38.8q4.9 0 8.3 2.8 3.5 2.8 5.3 7.5 1.8 4.7 1.8 10.4 0 5.7-1.8 10.4 -1.8 4.7-5.3 7.5 -3.5 2.8-8.3 2.8 -3 0-5.2-0.7 -2.1-0.7-4-2.2l0 21.4 -9.6 0 0-59.4 7.7 0 1 3.7q2.2-2.1 4.6-3.2 2.4-1.1 5.5-1.1zm-1.8 33.6q3.5 0 5.5-3.5 2-3.6 2-9.3 0-5.8-2-9.3 -2-3.6-5.5-3.6 -3.9 0-5.9 3.5 -2 3.5-2 9.4 0 5.9 2 9.4 2 3.5 5.9 3.5zm39.4 7.8q-6.1 0-10.3-2.8 -4.2-2.8-6.4-7.5 -2.1-4.7-2.1-10.5 0-5.9 2-10.6 2-4.7 5.9-7.4 3.9-2.7 9.4-2.7 6.8 0 10.7 4.8 3.9 4.8 3.9 12.9 0 2.3-0.5 5.1l-21.5 0q0.5 5.4 3.2 8.1 2.7 2.7 6.7 2.7 5.5 0 10.3-3.2l0.2 8.4q-4.9 2.6-11.6 2.6zm3.4-25.4q0-8.2-5.6-8.2 -5.5 0-6.6 8.2l12.2 0zm30.2 25.7q-4.3 0-8.6-0.9 -4.3-0.9-7.5-2.5l1.2-10.9q8.2 4.5 15.5 4.5 3.8 0 6-1.6 2.2-1.6 2.2-4.4 0-2.2-1.1-3.7 -1.1-1.6-3.4-3 -2.4-1.5-6.8-3.5 -7.1-3.2-10.4-6.8 -3.2-3.6-3.2-9.5 0-4.6 2.2-8.2 2.3-3.6 6.5-5.6 4.2-2 10.1-2 7.3 0 14.6 3.3l-1 10.6q-4.1-2-7.5-3 -3.4-1-6.8-1 -3.7 0-5.6 1.4 -2 1.4-2 4.3 0 2.2 1.3 3.6 1.3 1.5 3.2 2.6 1.9 1.1 6.8 3.4 7.1 3.4 10.4 7.2 3.3 3.8 3.3 9.7 0 7.4-5.1 11.8 -5.1 4.4-14.1 4.4zm42-0.3q-6 0-10.3-2.7 -4.3-2.8-6.4-7.5 -2.2-4.7-2.2-10.5 0-5.8 2.2-10.5 2.2-4.7 6.5-7.4 4.3-2.8 10.6-2.8 4.6 0 7.7 1.4l-0.7 7.8q-2.9-1.4-5.8-1.4 -5 0-7.7 3.5 -2.8 3.5-2.8 9.4 0 5.7 2.8 9.3 2.8 3.6 7.7 3.6 3.3 0 6.2-1.4l0.6 7.7q-1.5 0.7-3.7 1.2 -2.2 0.4-4.5 0.4zm13.6-40.8l8.4 0 0.6 4.2q2.2-2.5 4.2-3.7 2-1.2 4.6-1.2 1.1 0 2.1 0.2l-0.7 9.7q-1.2-0.4-2.6-0.4 -1.9 0-3.4 0.9 -1.5 0.9-3.6 3l0 27.3 -9.6 0 0-40zm22.9-16l9.6 0 0 9.9 -9.6 0 0-9.9zm0 16l9.6 0 0 40 -9.6 0 0-40zm35.5-0.6q4.9 0 8.3 2.8 3.5 2.8 5.3 7.5 1.8 4.7 1.8 10.4 0 5.7-1.8 10.4 -1.8 4.7-5.3 7.5 -3.5 2.8-8.3 2.8 -3 0-5.2-0.7 -2.1-0.7-4-2.2l0 21.4 -9.6 0 0-59.4 7.7 0 1 3.7q2.2-2.1 4.6-3.2 2.4-1.1 5.5-1.1zm-1.8 33.6q3.5 0 5.5-3.5 2-3.6 2-9.3 0-5.8-2-9.3 -2-3.6-5.5-3.6 -3.9 0-5.9 3.5 -2 3.5-2 9.4 0 5.9 2 9.4 2 3.5 5.9 3.5zm34.1 7.8q-4.6 0-7-2.6 -2.4-2.6-2.4-7.8l0-22.2 -4.5 0 0.9-8.2 3.6 0 0-8.8 9.6-1 0 9.8 7 0 0 8.2 -7 0 0 19.7q0 2.5 1 3.6 1 1.2 3.2 1.2l2.9 0 -0.9 8.2 -6.3 0z" class="b"/>
<path d="m898.4 498.7l57.6 0 0 41.3 -57.6 0z" class="a"/>
</g>
</svg>
